<?xml version="1.0" encoding="utf-8"?>
<!-- Generator: Adobe Illustrator 21.1.0, SVG Export Plug-In . SVG Version: 6.00 Build 0)  -->
<svg version="1.1" id="Layer_1" xmlns="http://www.w3.org/2000/svg" xmlns:xlink="http://www.w3.org/1999/xlink" x="0px" y="0px"
	 viewBox="0 0 40 30" style="enable-background:new 0 0 40 30;" xml:space="preserve">
<style type="text/css">
	.st0{fill:#A09F9F;}
</style>
<g>
	<g>
		<path class="st0" d="M4.9,0C2.3,0,0,2.3,0,4.8c0,1.4,0,7,0,12.5c0.5,0.3,2.7,1,3.6,1.1c2,0.1,3.2-0.5,3.4-2.1l0-6.1h4.3v5.9
			c-0.2,3.4-3.2,4.1-7.8,3.9C2.4,20,0.8,19.7,0,19.5C0,25,0,30,0,30s5.7,0,7.6,0c2.1,0,4.7-1.9,4.7-4.9c0-4.9,0-25.1,0-25.1
			S6.8,0,4.9,0z"/>
		<path class="st0" d="M0,17.4v2.1c0,0,0,0,0,0C0,18.8,0,18.1,0,17.4C0,17.4,0,17.4,0,17.4z"/>
	</g>
	<g>
		<path class="st0" d="M18.7,0c-2.5,0-4.8,2.3-4.8,4.8c0,0.9,0,3.5,0,6.6c1.5-1.2,4-1.8,7.1-1.5c1.8,0.1,3.1,0.4,3.8,0.6v2.1
			c-0.8-0.4-2.3-1-3.6-1.1c-2.9-0.2-4.5,1.2-4.5,3.4c0,2,1.2,3.7,4.5,3.5c1.1-0.1,2.9-0.7,3.6-1.1l0,2c-0.7,0.2-2.7,0.7-4.6,0.7
			c-2.9,0-4.9-0.6-6.2-1.6c0,5.9,0,11.5,0,11.5s5.7,0,7.6,0c2.1,0,4.7-1.9,4.7-4.9c0-4.9,0-25.1,0-25.1S20.7,0,18.7,0z"/>
	</g>
	<path class="st0" d="M33.1,15.6c-0.8,0-2.6,0-3,0l0,2.6l3,0c0.6,0,1.3-0.5,1.3-1.4C34.4,16.1,33.7,15.6,33.1,15.6z"/>
	<path class="st0" d="M34,12.9c0-0.8-0.6-1.3-1.2-1.3c-0.9,0-2.4,0-2.7,0l0,2.4l2.8,0C33.4,14.1,34,13.7,34,12.9z"/>
	<path class="st0" d="M32.5,0c-2.5,0-4.8,2.3-4.8,4.8c0,0.8,0,2.8,0,5.3h7.2c1.4,0,3.1,0.6,3.1,2.4c0,0.9-0.5,2-2.3,2.3v0
		c1,0,2.9,0.6,2.9,2.5c0,1.9-2,2.4-3,2.4l-7.9,0c0,5.4,0,10.2,0,10.2s5.7,0,7.6,0c2.1,0,4.7-1.9,4.7-4.9C40,20.2,40,0,40,0
		S34.5,0,32.5,0z"/>
</g>
</svg>
