<?xml version="1.0" encoding="utf-8"?>
<!-- Generator: Adobe Illustrator 21.1.0, SVG Export Plug-In . SVG Version: 6.00 Build 0)  -->
<svg version="1.1" id="Layer_1" xmlns="http://www.w3.org/2000/svg" xmlns:xlink="http://www.w3.org/1999/xlink" x="0px" y="0px"
	 viewBox="0 0 167 30" style="enable-background:new 0 0 167 30;" xml:space="preserve">
<style type="text/css">
	.st0{fill:#959798;}
	.st1{fill:#B5B7B8;}
	.st2{fill:#CED0D0;}
</style>
<g>
	<path class="st0" d="M18.7,14.9c0-4.6,2.1-8.7,5.5-11.3c-2.5-2-5.6-3.1-9-3.1C7.2,0.5,0.7,7,0.7,14.9s6.5,14.5,14.5,14.5
		c3.4,0,6.5-1.2,9-3.1C20.8,23.6,18.7,19.5,18.7,14.9z"/>
	<path class="st1" d="M18.7,14.9c0,4.6,2.1,8.7,5.5,11.3c3.3-2.6,5.5-6.7,5.5-11.3s-2.1-8.7-5.5-11.3C20.8,6.2,18.7,10.3,18.7,14.9z
		"/>
	<g>
		<path class="st0" d="M71.4,11.1c-0.3-0.3-0.7-0.6-1.2-0.8c-0.5-0.2-1-0.3-1.5-0.3c-0.3,0-0.6,0-0.9,0.1c-0.3,0.1-0.6,0.1-0.9,0.3
			c-0.3,0.1-0.6,0.3-0.9,0.5c-0.3,0.2-0.5,0.5-0.7,0.8c-0.3-0.5-0.8-1-1.3-1.3c-0.6-0.3-1.2-0.5-1.9-0.5c-0.2,0-0.5,0-0.7,0.1
			c-0.3,0-0.5,0.1-0.8,0.2c-0.3,0.1-0.5,0.3-0.7,0.4c-0.2,0.2-0.4,0.4-0.6,0.7v-1.2h-2v9.6h2v-5.3c0-0.4,0.1-0.8,0.2-1.1
			c0.1-0.3,0.3-0.6,0.5-0.8c0.2-0.2,0.5-0.4,0.8-0.5C61,12,61.3,12,61.7,12c0.7,0,1.2,0.2,1.6,0.7c0.4,0.4,0.6,1.1,0.6,1.9v5.3h2
			v-5.3c0-0.4,0.1-0.8,0.2-1.1c0.1-0.3,0.3-0.6,0.5-0.8c0.2-0.2,0.5-0.4,0.8-0.5c0.3-0.1,0.6-0.2,0.9-0.2c0.7,0,1.2,0.2,1.6,0.7
			c0.4,0.4,0.6,1.1,0.6,1.9v5.3h2v-6c0-0.6-0.1-1.1-0.3-1.5C72,11.8,71.7,11.4,71.4,11.1z"/>
		<path class="st0" d="M82.1,11.4c-0.3-0.4-0.7-0.8-1.2-1c-0.5-0.3-1.1-0.4-1.8-0.4c-0.7,0-1.3,0.1-1.9,0.4c-0.6,0.3-1.1,0.6-1.5,1
			c-0.4,0.4-0.8,1-1,1.6c-0.2,0.6-0.4,1.3-0.4,2c0,0.7,0.1,1.4,0.4,2c0.2,0.6,0.6,1.1,1,1.6c0.4,0.4,0.9,0.8,1.5,1
			c0.6,0.3,1.2,0.4,1.9,0.4c0.7,0,1.3-0.1,1.8-0.4c0.5-0.3,0.9-0.6,1.2-1v1.2h2.1v-9.6h-2.1V11.4z M82,16.3c-0.1,0.4-0.3,0.7-0.6,1
			c-0.3,0.3-0.6,0.5-0.9,0.6c-0.4,0.2-0.7,0.2-1.2,0.2c-0.5,0-0.9-0.1-1.2-0.2c-0.4-0.2-0.7-0.4-0.9-0.7c-0.2-0.3-0.4-0.6-0.6-1
			c-0.1-0.4-0.2-0.8-0.2-1.2c0-0.4,0.1-0.8,0.2-1.2c0.1-0.4,0.3-0.7,0.6-1c0.2-0.3,0.5-0.5,0.9-0.7c0.4-0.2,0.8-0.2,1.2-0.2
			c0.4,0,0.8,0.1,1.2,0.2c0.4,0.2,0.7,0.4,0.9,0.6c0.3,0.3,0.5,0.6,0.6,1c0.1,0.4,0.2,0.8,0.2,1.2C82.3,15.5,82.2,15.9,82,16.3z"/>
		<path class="st0" d="M93.8,15c-0.6-0.5-1.4-0.8-2.5-0.9l-1-0.2c-0.2,0-0.4-0.1-0.6-0.1c-0.2,0-0.4-0.1-0.5-0.2
			c-0.1-0.1-0.3-0.2-0.3-0.3c-0.1-0.1-0.1-0.3-0.1-0.4c0-0.3,0.2-0.6,0.5-0.8c0.3-0.2,0.8-0.3,1.3-0.3c0.3,0,0.6,0,0.9,0.1
			c0.3,0.1,0.6,0.1,0.8,0.2c0.3,0.1,0.5,0.2,0.7,0.3c0.2,0.1,0.4,0.2,0.5,0.3l0.9-1.6c-0.5-0.3-1.1-0.6-1.8-0.7
			c-0.7-0.2-1.4-0.3-2.1-0.3c-0.6,0-1.2,0.1-1.7,0.2c-0.5,0.1-0.9,0.3-1.2,0.6c-0.3,0.3-0.6,0.6-0.8,1c-0.2,0.4-0.3,0.8-0.3,1.3
			c0,0.8,0.3,1.4,0.8,1.9c0.6,0.5,1.4,0.8,2.4,0.9l1,0.1c0.6,0.1,1,0.2,1.3,0.4c0.3,0.2,0.4,0.4,0.4,0.7c0,0.4-0.2,0.6-0.6,0.9
			c-0.4,0.2-0.9,0.3-1.6,0.3c-0.4,0-0.7,0-1.1-0.1C89,18.1,88.7,18,88.5,18c-0.3-0.1-0.5-0.2-0.7-0.3c-0.2-0.1-0.4-0.2-0.6-0.4
			l-1,1.6c0.3,0.3,0.7,0.5,1.1,0.6s0.8,0.3,1.1,0.4c0.4,0.1,0.7,0.2,1,0.2c0.3,0,0.6,0,0.9,0c0.7,0,1.3-0.1,1.8-0.2
			c0.5-0.2,1-0.4,1.4-0.6c0.4-0.3,0.7-0.6,0.9-1c0.2-0.4,0.3-0.8,0.3-1.3C94.7,16.1,94.4,15.5,93.8,15z"/>
		<path class="st0" d="M113.4,11.4c-0.4-0.4-0.9-0.8-1.4-1c-0.6-0.2-1.2-0.4-1.8-0.4c-0.7,0-1.4,0.1-1.9,0.4c-0.6,0.2-1.1,0.6-1.5,1
			c-0.4,0.4-0.7,1-1,1.6c-0.2,0.6-0.4,1.3-0.4,2.1c0,0.8,0.1,1.5,0.4,2.1c0.2,0.6,0.6,1.2,1,1.6c0.4,0.4,1,0.8,1.6,1
			c0.6,0.2,1.3,0.4,2,0.4c0.7,0,1.4-0.1,2.1-0.3c0.7-0.2,1.3-0.6,1.9-1.1l-1-1.5c-0.4,0.3-0.8,0.6-1.3,0.7c-0.5,0.2-1,0.3-1.4,0.3
			c-0.3,0-0.7,0-1-0.1c-0.3-0.1-0.6-0.2-0.9-0.4c-0.3-0.2-0.5-0.4-0.7-0.8c-0.2-0.3-0.3-0.7-0.4-1.1h7.1c0-0.1,0-0.2,0-0.4
			c0-0.1,0-0.3,0-0.4c0-0.7-0.1-1.4-0.3-2C114.1,12.4,113.8,11.8,113.4,11.4z M107.6,14.2c0.1-0.3,0.1-0.7,0.3-1
			c0.1-0.3,0.3-0.5,0.5-0.8c0.2-0.2,0.5-0.4,0.8-0.5c0.3-0.1,0.6-0.2,1-0.2c0.7,0,1.2,0.2,1.6,0.6c0.4,0.4,0.7,1,0.8,1.7H107.6z"/>
		<path class="st0" d="M141.2,11.4c-0.3-0.4-0.7-0.8-1.2-1c-0.5-0.3-1.1-0.4-1.8-0.4c-0.7,0-1.3,0.1-1.9,0.4c-0.6,0.3-1.1,0.6-1.5,1
			c-0.4,0.4-0.8,1-1,1.6c-0.2,0.6-0.4,1.3-0.4,2c0,0.7,0.1,1.4,0.4,2c0.2,0.6,0.6,1.1,1,1.6c0.4,0.4,0.9,0.8,1.5,1
			c0.6,0.3,1.2,0.4,1.9,0.4c0.7,0,1.3-0.1,1.8-0.4c0.5-0.3,0.9-0.6,1.2-1v1.2h2.1v-9.6h-2.1V11.4z M141.1,16.3
			c-0.1,0.4-0.3,0.7-0.6,1c-0.3,0.3-0.6,0.5-0.9,0.6c-0.4,0.2-0.7,0.2-1.2,0.2c-0.5,0-0.9-0.1-1.2-0.2s-0.7-0.4-0.9-0.7
			c-0.2-0.3-0.4-0.6-0.6-1c-0.1-0.4-0.2-0.8-0.2-1.2c0-0.4,0.1-0.8,0.2-1.2c0.1-0.4,0.3-0.7,0.6-1c0.2-0.3,0.5-0.5,0.9-0.7
			c0.4-0.2,0.8-0.2,1.2-0.2c0.4,0,0.8,0.1,1.2,0.2c0.4,0.2,0.7,0.4,0.9,0.6c0.3,0.3,0.5,0.6,0.6,1c0.1,0.4,0.2,0.8,0.2,1.2
			C141.3,15.5,141.3,15.9,141.1,16.3z"/>
		<path class="st0" d="M102.8,17.9c-0.3,0.1-0.7,0.2-1,0.2c-0.2,0-0.4,0-0.6-0.1c-0.2-0.1-0.3-0.2-0.5-0.3c-0.1-0.1-0.2-0.3-0.3-0.6
			c-0.1-0.2-0.1-0.5-0.1-0.8v-4.2h3.4v-1.9h-3.4V7.3h-2.1v2.9h-1.9v1.9h1.9v4.2c0,1.3,0.3,2.2,0.9,2.8c0.6,0.6,1.4,0.9,2.5,0.9
			c0.6,0,1.2-0.1,1.6-0.3c0.3-0.1,0.6-0.3,0.9-0.4l-0.7-1.8C103.2,17.7,103,17.8,102.8,17.9z"/>
		<path class="st0" d="M121.7,10c-0.6,0-1.1,0.1-1.6,0.3c-0.5,0.2-0.9,0.7-1.2,1.2v-1.3H117v9.6h1.9v-5.3c0-0.4,0.1-0.8,0.2-1.1
			c0.1-0.3,0.3-0.6,0.5-0.8c0.2-0.2,0.4-0.4,0.7-0.5c0.3-0.1,0.6-0.2,0.9-0.2c0.3,0,0.5,0,0.8,0.1c0.1,0,0.3,0.1,0.4,0.1l0.6-2
			c-0.2-0.1-0.3-0.1-0.5-0.1C122.3,10,122,10,121.7,10z"/>
		<path class="st0" d="M150.8,10c-0.6,0-1.1,0.1-1.6,0.3c-0.5,0.2-0.9,0.7-1.2,1.2v-1.3h-1.9v9.6h1.9v-5.3c0-0.4,0.1-0.8,0.2-1.1
			c0.1-0.3,0.3-0.6,0.5-0.8c0.2-0.2,0.4-0.4,0.7-0.5c0.3-0.1,0.6-0.2,0.9-0.2c0.3,0,0.5,0,0.8,0.1c0.1,0,0.3,0.1,0.4,0.1l0.6-2
			c-0.2-0.1-0.3-0.1-0.5-0.1C151.4,10,151.1,10,150.8,10z"/>
		<path class="st0" d="M160.5,6.3v5.1c-0.3-0.4-0.7-0.8-1.2-1c-0.5-0.3-1.1-0.4-1.8-0.4c-0.7,0-1.3,0.1-1.9,0.4
			c-0.6,0.3-1.1,0.6-1.5,1c-0.4,0.4-0.8,1-1,1.6c-0.2,0.6-0.4,1.3-0.4,2c0,0.7,0.1,1.4,0.4,2c0.2,0.6,0.6,1.1,1,1.6
			c0.4,0.4,0.9,0.8,1.5,1c0.6,0.3,1.2,0.4,1.9,0.4c0.7,0,1.3-0.1,1.8-0.4c0.5-0.3,0.9-0.6,1.2-1v1.2h2.1V6.3H160.5z M160.5,16.3
			c-0.1,0.4-0.3,0.7-0.6,1c-0.3,0.3-0.6,0.5-0.9,0.6c-0.4,0.2-0.7,0.2-1.2,0.2c-0.5,0-0.9-0.1-1.2-0.2c-0.4-0.2-0.7-0.4-0.9-0.7
			c-0.2-0.3-0.4-0.6-0.6-1c-0.1-0.4-0.2-0.8-0.2-1.2c0-0.4,0.1-0.8,0.2-1.2c0.1-0.4,0.3-0.7,0.6-1c0.2-0.3,0.5-0.5,0.9-0.7
			c0.4-0.2,0.8-0.2,1.2-0.2c0.4,0,0.8,0.1,1.2,0.2c0.4,0.2,0.7,0.4,0.9,0.6c0.3,0.3,0.5,0.6,0.6,1c0.1,0.4,0.2,0.8,0.2,1.2
			C160.7,15.5,160.6,15.9,160.5,16.3z"/>
		<path class="st0" d="M126.7,12.8c0.3-0.3,0.6-0.5,1-0.6c0.4-0.2,0.8-0.2,1.2-0.2v0c0.5,0,0.9,0.1,1.3,0.2c0.4,0.1,0.7,0.3,1,0.6
			l1-1.7c-0.4-0.3-0.8-0.5-1.3-0.7c-0.6-0.3-1.3-0.4-2.1-0.4c-0.7,0-1.4,0.1-2.1,0.4c-0.6,0.3-1.2,0.6-1.6,1.1
			c-0.5,0.5-0.8,1-1.1,1.6c-0.3,0.6-0.4,1.3-0.4,2c0,0.7,0.1,1.4,0.4,2c0.3,0.6,0.6,1.1,1.1,1.6c0.5,0.5,1,0.8,1.6,1.1
			c0.6,0.3,1.3,0.4,2.1,0.4c0.7,0,1.4-0.1,2.1-0.4c0.5-0.2,0.9-0.4,1.3-0.7l-1-1.7c-0.3,0.3-0.6,0.5-1,0.6c-0.4,0.2-0.8,0.2-1.3,0.2
			v0c-0.4,0-0.8-0.1-1.2-0.2c-0.4-0.1-0.7-0.4-1-0.6c-0.3-0.3-0.5-0.6-0.6-1c-0.2-0.4-0.2-0.8-0.2-1.2c0-0.5,0.1-0.9,0.2-1.2
			C126.2,13.4,126.4,13.1,126.7,12.8z"/>
	</g>
	<path class="st0" d="M46.5,22.9v-0.5h-0.2v-0.1h0.5v0.1h-0.2v0.5H46.5z M47.5,22.9v-0.4l-0.1,0.4h-0.2l-0.1-0.4v0.4h-0.1v-0.6h0.2
		l0.2,0.4l0.2-0.4h0.2v0.6H47.5z"/>
	<g>
		<path class="st0" d="M165.2,18.9c0.1,0,0.2,0,0.3,0.1c0.1,0,0.2,0.1,0.2,0.2c0.1,0.1,0.1,0.1,0.2,0.2c0,0.1,0.1,0.2,0.1,0.3
			c0,0.1,0,0.2-0.1,0.3c0,0.1-0.1,0.2-0.2,0.2c-0.1,0.1-0.1,0.1-0.2,0.2c-0.1,0-0.2,0.1-0.3,0.1c-0.1,0-0.2,0-0.3-0.1
			c-0.1,0-0.2-0.1-0.2-0.2c-0.1-0.1-0.1-0.1-0.2-0.2c0-0.1-0.1-0.2-0.1-0.3c0-0.1,0-0.2,0.1-0.3c0-0.1,0.1-0.2,0.2-0.2
			c0.1-0.1,0.1-0.1,0.2-0.2C165,18.9,165.1,18.9,165.2,18.9z M165.2,20.2c0.1,0,0.1,0,0.2,0s0.1-0.1,0.2-0.1c0,0,0.1-0.1,0.1-0.2
			c0-0.1,0-0.1,0-0.2c0-0.1,0-0.1,0-0.2c0-0.1-0.1-0.1-0.1-0.2c0,0-0.1-0.1-0.2-0.1c-0.1,0-0.1,0-0.2,0c-0.1,0-0.1,0-0.2,0
			c-0.1,0-0.1,0.1-0.2,0.1c0,0-0.1,0.1-0.1,0.2c0,0.1,0,0.1,0,0.2c0,0.1,0,0.1,0,0.2c0,0.1,0.1,0.1,0.1,0.2c0,0,0.1,0.1,0.2,0.1
			C165.1,20.2,165.2,20.2,165.2,20.2z M165.3,19.3c0.1,0,0.2,0,0.2,0.1c0,0,0.1,0.1,0.1,0.2c0,0.1,0,0.1-0.1,0.1
			c0,0-0.1,0.1-0.1,0.1l0.2,0.2h-0.2l-0.2-0.2h0V20H165v-0.7H165.3z M165.1,19.5v0.1h0.1c0,0,0.1,0,0.1,0c0,0,0,0,0,0c0,0,0,0,0,0
			c0,0,0,0-0.1,0H165.1z"/>
	</g>
	<path class="st2" d="M33.2,0.5c-3.4,0-6.5,1.2-9,3.1c3.3,2.6,5.5,6.7,5.5,11.3s-2.1,8.7-5.5,11.3c2.5,2,5.6,3.1,9,3.1
		c8,0,14.5-6.5,14.5-14.5S41.1,0.5,33.2,0.5z"/>
</g>
</svg>
