<?xml version="1.0" encoding="utf-8"?>
<!-- Generator: Adobe Illustrator 21.1.0, SVG Export Plug-In . SVG Version: 6.00 Build 0)  -->
<svg version="1.1" id="Layer_1" xmlns="http://www.w3.org/2000/svg" xmlns:xlink="http://www.w3.org/1999/xlink" x="0px" y="0px"
	 viewBox="0 0 97 30" style="enable-background:new 0 0 97 30;" xml:space="preserve">
<style type="text/css">
	.st0{fill:#A1A0A0;}
	.st1{fill:#C1C0C0;}
</style>
<g>
	<polygon class="st0" points="33.9,29.3 38.8,0.8 46.5,0.8 41.7,29.3 	"/>
	<path class="st0" d="M69.8,1.5c-1.5-0.6-3.9-1.2-7-1.2c-7.7,0-13.1,3.9-13.1,9.4c0,4.1,3.9,6.4,6.8,7.7c3,1.4,4,2.3,4,3.5
		c0,1.9-2.4,2.8-4.6,2.8c-3.1,0-4.8-0.4-7.3-1.5l-1-0.5l-1.1,6.4c1.8,0.8,5.2,1.5,8.6,1.5c8.2,0,13.5-3.8,13.5-9.7
		c0-3.2-2-5.7-6.5-7.7c-2.7-1.3-4.4-2.2-4.4-3.5c0-1.2,1.4-2.4,4.4-2.4c2.5,0,4.4,0.5,5.8,1.1l0.7,0.3L69.8,1.5"/>
	<path class="st0" d="M89.7,0.8h-6c-1.9,0-3.2,0.5-4.1,2.4L68.1,29.3h8.1c0,0,1.3-3.5,1.6-4.3c0.9,0,8.8,0,9.9,0
		c0.2,1,0.9,4.3,0.9,4.3H96L89.7,0.8 M80.2,19.2c0.6-1.6,3.1-8,3.1-8c0,0.1,0.6-1.6,1-2.7l0.5,2.5c0,0,1.5,6.8,1.8,8.2H80.2z"/>
	<path class="st0" d="M27.4,0.8l-7.6,19.4L19,16.3c-1.4-4.5-5.8-9.5-10.7-11.9l6.9,24.9l8.2,0L35.6,0.8H27.4"/>
	<path class="st1" d="M12.8,0.8H0.3L0.2,1.4C9.9,3.8,16.3,9.4,19,16.3L16.3,3.2C15.8,1.4,14.5,0.9,12.8,0.8"/>
</g>
</svg>
